<?xml version="1.0" standalone="no"?>
<!DOCTYPE svg PUBLIC "-//W3C//DTD SVG 20010904//EN"
 "http://www.w3.org/TR/2001/REC-SVG-20010904/DTD/svg10.dtd">
<svg version="1.0" xmlns="http://www.w3.org/2000/svg"
 width="512.000000pt" height="512.000000pt" viewBox="0 0 512.000000 512.000000"
 preserveAspectRatio="xMidYMid meet">

<g transform="translate(0.000000,512.000000) scale(0.100000,-0.100000)"
fill="#000000" stroke="none">
<path d="M854 5109 c-85 -24 -180 -121 -204 -207 -5 -20 -10 -76 -10 -124 l0
-88 -179 0 c-178 0 -180 0 -210 -26 -38 -32 -49 -80 -27 -123 29 -54 56 -61
246 -61 l170 0 0 -215 0 -215 -179 0 c-178 0 -180 0 -210 -26 -38 -32 -49 -80
-27 -123 29 -54 56 -61 246 -61 l170 0 0 -215 0 -215 -179 0 c-178 0 -180 0
-210 -26 -38 -32 -49 -80 -27 -123 29 -54 56 -61 246 -61 l170 0 0 -215 0
-215 -180 0 -180 0 -30 -27 c-57 -51 -42 -147 26 -173 14 -6 102 -10 195 -10
l169 0 0 -215 0 -215 -180 0 -180 0 -30 -27 c-57 -51 -42 -147 26 -173 14 -6
102 -10 195 -10 l169 0 0 -215 0 -215 -180 0 -180 0 -30 -27 c-57 -51 -42
-147 26 -173 14 -6 102 -10 195 -10 l169 0 0 -215 0 -215 -180 0 -180 0 -30
-27 c-57 -51 -42 -147 26 -173 14 -6 101 -10 194 -10 l169 0 3 -212 c3 -199 5
-216 26 -255 33 -63 74 -106 134 -139 l53 -29 1795 -3 c1620 -2 1799 -1 1842
14 65 21 149 99 177 163 l21 49 0 2332 0 2331 -21 50 c-27 63 -112 141 -175
163 -43 14 -218 16 -1828 15 -1035 0 -1794 -5 -1812 -10z m3616 -219 c6 -9 10
-888 10 -2330 0 -1442 -4 -2321 -10 -2330 -14 -22 -3565 -28 -3595 -6 -19 13
-20 29 -23 215 l-3 201 76 0 c81 0 109 9 137 44 27 32 23 99 -6 133 -22 26
-31 28 -113 33 l-88 5 -3 212 -2 213 75 0 c81 0 109 9 137 44 27 32 23 99 -6
133 -22 26 -31 28 -113 33 l-88 5 -3 213 -2 212 75 0 c81 0 109 9 137 44 27
32 23 99 -6 133 -22 26 -31 28 -113 33 l-88 5 -3 213 -2 212 75 0 c81 0 109 9
137 44 27 32 23 99 -6 133 -22 26 -31 28 -113 33 l-88 5 -3 213 -2 212 75 0
c81 0 109 9 137 44 27 32 23 99 -6 133 -22 26 -31 28 -113 33 l-88 5 -3 213
-2 212 75 0 c81 0 109 9 137 44 27 32 23 99 -6 133 -22 26 -31 28 -113 33
l-88 5 -3 213 -2 212 75 0 c81 0 109 9 137 44 27 32 23 99 -6 133 -22 26 -31
28 -113 33 l-88 5 0 93 c0 81 3 96 20 108 30 22 3581 16 3595 -6z"/>
<path d="M2470 3992 c-200 -66 -278 -109 -370 -202 -135 -134 -179 -253 -187
-502 -10 -282 45 -580 188 -1010 231 -701 511 -1101 825 -1182 92 -24 223 -21
335 8 105 27 266 85 305 111 27 17 74 106 74 140 0 11 -61 203 -136 427 -151
455 -150 453 -251 477 -47 12 -57 10 -171 -27 -140 -46 -128 -50 -185 64 -74
149 -143 382 -154 524 l-5 75 103 32 c57 18 118 41 135 52 38 23 74 94 74 145
0 49 -255 827 -282 862 -26 32 -75 54 -120 54 -18 0 -98 -22 -178 -48z m250
-504 c58 -177 105 -326 105 -331 0 -6 -45 -25 -100 -43 -121 -41 -154 -71
-181 -170 -63 -233 135 -797 325 -924 63 -43 93 -45 196 -14 50 15 99 29 110
31 18 4 30 -27 128 -319 59 -178 107 -328 107 -334 0 -7 -51 -29 -112 -50
-102 -34 -123 -38 -218 -39 -100 0 -108 2 -175 35 -213 106 -405 425 -593 985
-237 704 -261 1117 -76 1316 27 28 68 62 92 76 44 26 245 102 272 102 11 1 43
-87 120 -321z"/>
</g>
</svg>
